%TF.GenerationSoftware,KiCad,Pcbnew,(5.1.9)-1*%
%TF.CreationDate,2021-03-04T00:36:31+01:00*%
%TF.ProjectId,IO_LINK,494f5f4c-494e-44b2-9e6b-696361645f70,rev?*%
%TF.SameCoordinates,Original*%
%TF.FileFunction,Legend,Bot*%
%TF.FilePolarity,Positive*%
%FSLAX46Y46*%
G04 Gerber Fmt 4.6, Leading zero omitted, Abs format (unit mm)*
G04 Created by KiCad (PCBNEW (5.1.9)-1) date 2021-03-04 00:36:31*
%MOMM*%
%LPD*%
G01*
G04 APERTURE LIST*
%ADD10C,0.120000*%
%ADD11C,0.150000*%
G04 APERTURE END LIST*
D10*
%TO.C,M2*%
X122682100Y-52044900D02*
X115900300Y-52044900D01*
X115900300Y-52044900D02*
X115900300Y-57353500D01*
X122682100Y-57353500D02*
X122682100Y-52044900D01*
X122682100Y-57353500D02*
X115900300Y-57353500D01*
X100203100Y-57353500D02*
X106984900Y-57353500D01*
X106984900Y-57353500D02*
X106984900Y-52044900D01*
X100203100Y-52044900D02*
X100203100Y-57353500D01*
X100203100Y-52044900D02*
X106984900Y-52044900D01*
X106984900Y-91719700D02*
X100203100Y-91719700D01*
X100203100Y-91719700D02*
X100203100Y-97028300D01*
X106984900Y-97028300D02*
X106984900Y-91719700D01*
X106984900Y-97028300D02*
X100203100Y-97028300D01*
X122682100Y-91719700D02*
X115900300Y-91719700D01*
X115900300Y-91719700D02*
X115900300Y-97028300D01*
X122682100Y-97028300D02*
X122682100Y-91719700D01*
X122682100Y-97028300D02*
X115900300Y-97028300D01*
D11*
X117749680Y-53391242D02*
X116749680Y-53391242D01*
X117749680Y-53867433D02*
X116749680Y-53867433D01*
X117749680Y-54438861D01*
X116749680Y-54438861D01*
X117368728Y-54915052D02*
X117368728Y-55676957D01*
X117749680Y-55296004D02*
X116987776Y-55296004D01*
X105532280Y-53391242D02*
X104532280Y-53391242D01*
X105532280Y-53867433D02*
X104532280Y-53867433D01*
X105532280Y-54438861D01*
X104532280Y-54438861D01*
X105151328Y-54915052D02*
X105151328Y-55676957D01*
X116749680Y-92285052D02*
X116749680Y-92475528D01*
X116797300Y-92570766D01*
X116892538Y-92666004D01*
X117083014Y-92713623D01*
X117416347Y-92713623D01*
X117606823Y-92666004D01*
X117702061Y-92570766D01*
X117749680Y-92475528D01*
X117749680Y-92285052D01*
X117702061Y-92189814D01*
X117606823Y-92094576D01*
X117416347Y-92046957D01*
X117083014Y-92046957D01*
X116892538Y-92094576D01*
X116797300Y-92189814D01*
X116749680Y-92285052D01*
X116749680Y-93142195D02*
X117559204Y-93142195D01*
X117654442Y-93189814D01*
X117702061Y-93237433D01*
X117749680Y-93332671D01*
X117749680Y-93523147D01*
X117702061Y-93618385D01*
X117654442Y-93666004D01*
X117559204Y-93713623D01*
X116749680Y-93713623D01*
X116749680Y-94046957D02*
X116749680Y-94618385D01*
X117749680Y-94332671D02*
X116749680Y-94332671D01*
X117368728Y-94951719D02*
X117368728Y-95713623D01*
X117749680Y-95332671D02*
X116987776Y-95332671D01*
X104684680Y-92285052D02*
X104684680Y-92475528D01*
X104732300Y-92570766D01*
X104827538Y-92666004D01*
X105018014Y-92713623D01*
X105351347Y-92713623D01*
X105541823Y-92666004D01*
X105637061Y-92570766D01*
X105684680Y-92475528D01*
X105684680Y-92285052D01*
X105637061Y-92189814D01*
X105541823Y-92094576D01*
X105351347Y-92046957D01*
X105018014Y-92046957D01*
X104827538Y-92094576D01*
X104732300Y-92189814D01*
X104684680Y-92285052D01*
X104684680Y-93142195D02*
X105494204Y-93142195D01*
X105589442Y-93189814D01*
X105637061Y-93237433D01*
X105684680Y-93332671D01*
X105684680Y-93523147D01*
X105637061Y-93618385D01*
X105589442Y-93666004D01*
X105494204Y-93713623D01*
X104684680Y-93713623D01*
X104684680Y-94046957D02*
X104684680Y-94618385D01*
X105684680Y-94332671D02*
X104684680Y-94332671D01*
X105303728Y-94951719D02*
X105303728Y-95713623D01*
%TD*%
M02*
