M48
; DRILL file {KiCad (5.1.9)-1} date 03/09/21 23:57:37
; FORMAT={-:-/ absolute / inch / decimal}
; #@! TF.CreationDate,2021-03-09T23:57:37+01:00
; #@! TF.GenerationSoftware,Kicad,Pcbnew,(5.1.9)-1
; #@! TF.FileFunction,Plated,1,4,PTH
FMAT,2
INCH
T1C0.0098
T2C0.0118
T3C0.0157
T4C0.0394
T5C0.0472
T6C0.0520
T7C0.1260
%
G90
G05
T1
X2.0285Y-5.2855
X2.0285Y-5.3455
X2.0285Y-5.4055
X2.0285Y-5.4655
X2.0299Y-5.4976
X2.0335Y-2.4505
X2.0335Y-2.5305
X2.0335Y-2.6075
X2.0335Y-2.6855
X2.0335Y-2.7567
X2.0335Y-2.8355
X2.0335Y-2.9505
X2.0335Y-3.0555
X2.0335Y-3.1555
X2.0335Y-3.2555
X2.0335Y-3.3555
X2.0335Y-3.4555
X2.0335Y-3.5555
X2.0335Y-3.6555
X2.0335Y-3.7555
X2.0335Y-3.8555
X2.0335Y-3.9555
X2.0335Y-4.0555
X2.0335Y-4.1555
X2.0335Y-4.2605
X2.0335Y-4.3555
X2.0335Y-4.4555
X2.0335Y-4.5555
X2.0335Y-4.6555
X2.0335Y-4.7555
X2.0335Y-4.8555
X2.0335Y-4.9555
X2.0335Y-5.0555
X2.0385Y-2.3858
X2.0485Y-5.1555
X2.0701Y-5.2646
X2.0866Y-5.4984
X2.0917Y-2.3854
X2.1008Y-3.9004
X2.1028Y-4.3461
X2.1154Y-3.7272
X2.1185Y-5.1555
X2.1311Y-3.522
X2.1331Y-2.9055
X2.1339Y-2.6846
X2.1346Y-3.1748
X2.135Y-5.498
X2.1449Y-2.5134
X2.1453Y-2.3854
X2.1476Y-3.3382
X2.1516Y-4.8063
X2.1622Y-4.9941
X2.1783Y-4.5882
X2.1885Y-5.3255
X2.1921Y-5.4976
X2.1961Y-5.2618
X2.198Y-4.411
X2.2035Y-2.3854
X2.2181Y-3.0012
X2.2185Y-5.1555
X2.2213Y-4.2008
X2.2681Y-5.498
X2.2701Y-2.6803
X2.2732Y-2.3854
X2.2744Y-3.1303
X2.298Y-5.2661
X2.3051Y-4.0484
X2.3185Y-5.1555
X2.326Y-4.5803
X2.3307Y-2.3858
X2.3346Y-5.4988
X2.3358Y-2.5217
X2.3469Y-4.9768
X2.3559Y-3.3484
X2.3559Y-3.7528
X2.3634Y-2.9118
X2.3677Y-3.5437
X2.3677Y-4.3079
X2.3685Y-5.5055
X2.3819Y-2.0255
X2.3819Y-2.0972
X2.3819Y-2.1642
X2.3823Y-2.2303
X2.3823Y-2.2957
X2.3823Y-2.3854
X2.3925Y-5.5441
X2.3925Y-5.6307
X2.3953Y-5.7512
X2.3969Y-5.8484
X2.4185Y-5.1555
X2.4232Y-2.678
X2.4256Y-5.2654
X2.4457Y-3.0134
X2.4485Y-5.8455
X2.4685Y-2.0255
X2.4935Y-2.4855
X2.4953Y-2.7224
X2.498Y-4.6264
X2.4985Y-2.6255
X2.4988Y-2.1638
X2.4988Y-4.4193
X2.4992Y-2.9839
X2.4992Y-4.5655
X2.4996Y-3.1862
X2.5Y-2.8063
X2.5Y-4.1465
X2.5Y-4.2248
X2.5012Y-4.3264
X2.5016Y-4.065
X2.5016Y-4.9055
X2.5016Y-5.039
X2.502Y-3.0858
X2.502Y-4.8457
X2.5028Y-2.889
X2.5039Y-4.9665
X2.5197Y-5.2713
X2.5285Y-5.8455
X2.5535Y-2.4105
X2.5685Y-2.0255
X2.5733Y-3.5429
X2.5733Y-4.783
X2.5885Y-5.1855
X2.5885Y-5.3055
X2.5885Y-5.8455
X2.5898Y-4.7114
X2.5898Y-4.8531
X2.5906Y-4.5957
X2.5906Y-4.8878
X2.5917Y-4.5346
X2.5921Y-4.6551
X2.5935Y-3.6505
X2.5984Y-3.363
X2.5984Y-3.4378
X2.5985Y-3.3105
X2.5985Y-3.6205
X2.6085Y-2.5655
X2.6085Y-2.6455
X2.6085Y-2.7255
X2.6085Y-2.8055
X2.6085Y-2.8855
X2.6085Y-2.9655
X2.6085Y-3.0455
X2.6205Y-4.6846
X2.6209Y-4.6283
X2.6213Y-4.5657
X2.6236Y-2.3421
X2.6323Y-3.3972
X2.6327Y-4.8736
X2.6335Y-2.5255
X2.6335Y-3.6355
X2.6343Y-3.3327
X2.6485Y-5.1455
X2.6685Y-5.8455
X2.6705Y-3.9559
X2.6885Y-2.0255
X2.6894Y-4.1012
X2.7085Y-2.6855
X2.7085Y-2.9455
X2.7085Y-3.0855
X2.7094Y-4.2465
X2.7114Y-5.6728
X2.7283Y-4.4331
X2.7285Y-5.8455
X2.7287Y-4.5961
X2.7485Y-3.2455
X2.7485Y-3.3655
X2.7563Y-2.2224
X2.7776Y-5.1677
X2.7831Y-4.8508
X2.7835Y-4.7791
X2.7835Y-3.4878
X2.7835Y-3.5405
X2.7835Y-3.6205
X2.7835Y-4.7105
X2.8085Y-2.0255
X2.8085Y-5.4655
X2.8114Y-4.7449
X2.8114Y-4.8126
X2.8285Y-2.8655
X2.8285Y-3.5405
X2.8285Y-5.8455
X2.8299Y-4.3425
X2.8303Y-3.3673
X2.8303Y-4.2886
X2.8303Y-4.3941
X2.8303Y-3.1524
X2.8303Y-4.5039
X2.8307Y-3.2626
X2.8307Y-3.0555
X2.8307Y-3.1016
X2.8307Y-4.6043
X2.8308Y-3.3154
X2.8308Y-4.5555
X2.8339Y-4.0622
X2.85Y-3.487
X2.8685Y-3.9255
X2.8935Y-2.9255
X2.9085Y-2.5355
X2.9085Y-3.1255
X2.9085Y-5.8455
X2.9244Y-2.4283
X2.9285Y-2.0255
X2.9483Y-3.6504
X2.9483Y-4.8905
X2.9485Y-2.7255
X2.9485Y-3.2655
X2.9598Y-2.2035
X2.9685Y-3.0455
X2.9745Y-4.6095
X2.9835Y-3.3693
X2.9858Y-3.4704
X2.9858Y-4.7105
X2.9885Y-5.1655
X2.9885Y-5.2855
X2.9885Y-5.8455
X2.9921Y-2.3157
X3.0085Y-2.5355
X3.0085Y-5.0855
X3.0197Y-2.4283
X3.0224Y-3.9882
X3.0485Y-2.0255
X3.0485Y-5.8455
X3.0495Y-3.5716
X3.0495Y-4.8118
X3.0606Y-3.8594
X3.0654Y-3.6339
X3.0699Y-4.8741
X3.0835Y-2.5355
X3.0885Y-3.3255
X3.0885Y-5.4855
X3.0885Y-5.6855
X3.1071Y-2.6232
X3.1085Y-2.8455
X3.1085Y-5.0655
X3.1205Y-2.4287
X3.1375Y-3.4205
X3.1375Y-3.4745
X3.1385Y-4.6605
X3.1385Y-4.7155
X3.1485Y-2.9255
X3.1485Y-3.8255
X3.1485Y-5.8455
X3.1551Y-4.0539
X3.1685Y-2.5355
X3.1843Y-4.2953
X3.1858Y-3.2704
X3.1858Y-4.5105
X3.1885Y-2.0255
X3.1885Y-3.1655
X3.1885Y-5.3055
X3.1957Y-3.7563
X3.1958Y-3.4479
X3.1963Y-4.6875
X3.1985Y-4.9955
X3.2085Y-5.8455
X3.2146Y-2.1323
X3.2303Y-2.4303
X3.238Y-4.511
X3.2485Y-2.5355
X3.2485Y-4.6605
X3.2485Y-4.7155
X3.2535Y-3.4195
X3.2535Y-3.4755
X3.2667Y-4.5083
X3.2667Y-4.5592
X3.2685Y-5.0455
X3.2685Y-5.1455
X3.2685Y-5.4855
X3.2685Y-5.5455
X3.2685Y-5.6055
X3.2685Y-5.6655
X3.2685Y-5.7255
X3.2685Y-5.7855
X3.2685Y-5.8455
X3.272Y-4.8224
X3.2735Y-3.7575
X3.2826Y-4.2918
X3.2885Y-2.7455
X3.2885Y-5.4455
X3.3085Y-4.0655
X3.3245Y-4.8843
X3.3285Y-2.5355
X3.3285Y-5.4055
X3.344Y-3.261
X3.3485Y-2.0255
X3.3485Y-3.0655
X3.3598Y-3.3743
X3.379Y-4.472
X3.3815Y-4.2484
X3.3854Y-5.1299
X3.3885Y-3.1455
X3.3885Y-5.4055
X3.3889Y-3.8917
X3.3937Y-4.6429
X3.394Y-4.6921
X3.4059Y-2.3358
X3.406Y-3.348
X3.406Y-3.688
X3.408Y-4.4
X3.4193Y-4.6661
X3.4228Y-2.4287
X3.4285Y-2.5355
X3.4685Y-3.7655
X3.4685Y-3.9455
X3.4685Y-5.4055
X3.4885Y-2.0255
X3.4885Y-3.6055
X3.4885Y-5.1055
X3.497Y-4.43
X3.5085Y-2.5355
X3.5085Y-4.3655
X3.5085Y-4.7855
X3.5085Y-5.3655
X3.522Y-3.532
X3.5285Y-2.6055
X3.5285Y-2.7055
X3.5285Y-2.7855
X3.5285Y-4.1255
X3.53Y-4.5722
X3.5343Y-4.4677
X3.5685Y-3.1855
X3.5719Y-4.3189
X3.6083Y-4.4335
X3.6085Y-3.8055
X3.6085Y-3.9055
X3.6085Y-4.7855
X3.6235Y-5.3305
X3.6235Y-5.3605
X3.6236Y-5.4153
X3.6248Y-5.1874
X3.6285Y-2.0255
X3.6295Y-5.0716
X3.6485Y-3.4655
X3.6485Y-3.8455
X3.6485Y-3.9855
X3.6539Y-3.6094
X3.659Y-5.0685
X3.6685Y-3.1855
X3.671Y-4.432
X3.672Y-4.502
X3.6885Y-2.7855
X3.693Y-4.198
X3.6976Y-5.0696
X3.7085Y-3.0655
X3.7085Y-4.0255
X3.7085Y-4.8655
X3.72Y-4.303
X3.721Y-4.632
X3.7285Y-5.2055
X3.7362Y-5.0736
X3.7485Y-3.2455
X3.7485Y-3.4855
X3.7485Y-4.0855
X3.7685Y-2.0255
X3.7685Y-4.6355
X3.7885Y-2.5255
X3.7885Y-2.6055
X3.8035Y-2.222
X3.8085Y-2.7455
X3.8085Y-2.8455
X3.8085Y-3.5655
X3.8285Y-2.4255
X3.8285Y-4.1055
X3.8485Y-3.7055
X3.8485Y-3.8655
X3.8579Y-4.4024
X3.8685Y-2.5255
X3.8685Y-2.5655
X3.8685Y-5.3055
X3.8785Y-3.0205
X3.8785Y-3.1055
X3.8785Y-3.2055
X3.8785Y-3.3055
X3.8785Y-3.4455
X3.8785Y-3.6455
X3.8785Y-3.7855
X3.89Y-4.695
X3.8961Y-4.3587
X3.9085Y-2.0255
X3.9085Y-4.9655
X3.9285Y-4.1055
X3.9285Y-5.4055
X3.93Y-4.289
X3.9485Y-5.3255
X3.9508Y-3.8949
X3.9885Y-2.5855
X3.9885Y-2.7055
X3.9885Y-2.8255
X3.9885Y-2.9255
X3.9885Y-3.0255
X3.9885Y-3.1655
X3.9885Y-3.2655
X3.9885Y-3.3455
X3.9885Y-3.4455
X3.9885Y-3.5255
X3.9885Y-3.6055
X3.9885Y-5.4455
X4.0008Y-4.3992
X4.0085Y-5.7655
X4.0085Y-5.8455
X4.0285Y-5.3255
X4.0285Y-5.6255
X4.0285Y-5.6855
X4.0291Y-4.439
X4.0406Y-4.9934
X4.0485Y-2.0255
X4.0685Y-4.7655
X4.0685Y-5.8455
X4.071Y-4.095
X4.0882Y-3.8949
X4.104Y-4.044
X4.1085Y-3.2655
X4.1085Y-5.1855
X4.1185Y-3.9555
X4.1386Y-5.6523
X4.146Y-4.168
X4.1485Y-3.0055
X4.1485Y-5.3255
X4.1629Y-4.6777
X4.1638Y-4.4193
X4.1685Y-4.4855
X4.1685Y-4.5655
X4.1685Y-5.8455
X4.1704Y-4.6283
X4.177Y-4.066
X4.1866Y-4.6916
X4.1885Y-2.0255
X4.1885Y-5.3655
X4.1885Y-5.4455
X4.1885Y-5.6255
X4.1885Y-5.7055
X4.192Y-4.022
X4.1985Y-4.9255
X4.2023Y-4.8299
X4.2145Y-4.696
X4.2185Y-3.8555
X4.2285Y-2.6655
X4.2285Y-3.5655
X4.242Y-4.168
X4.2485Y-3.8555
X4.2485Y-4.8705
X4.2485Y-5.8455
X4.254Y-4.018
X4.2585Y-3.5655
X4.2685Y-3.9455
X4.277Y-4.054
X4.2785Y-3.8555
X4.2885Y-3.5655
X4.3085Y-2.0255
X4.3085Y-3.8555
X4.3085Y-4.6455
X4.3185Y-3.5655
X4.3285Y-3.3855
X4.3445Y-4.6775
X4.3485Y-4.5855
X4.3485Y-4.9255
X4.3485Y-5.2655
X4.3485Y-5.5255
X4.3485Y-5.8455
X4.3554Y-4.8773
X4.3572Y-4.8498
X4.3685Y-3.9855
X4.3885Y-3.6655
X4.3885Y-4.4855
X4.3885Y-4.6455
X4.3929Y-4.8513
X4.4208Y-5.2181
X4.422Y-4.171
X4.4285Y-2.0255
X4.4285Y-4.0455
X4.4285Y-4.6855
X4.4285Y-5.8455
X4.4445Y-4.5972
X4.4485Y-2.8455
X4.4485Y-3.1655
X4.459Y-4.211
X4.4635Y-3.7705
X4.4677Y-4.5677
X4.4685Y-3.9455
X4.4685Y-5.2855
X4.4732Y-5.0488
X4.4885Y-5.4855
X4.4937Y-4.4606
X4.5067Y-2.1472
X4.5085Y-4.0055
X4.5085Y-5.8455
X4.5156Y-4.1687
X4.5285Y-4.0855
X4.5285Y-4.7255
X4.539Y-4.224
X4.5485Y-2.0255
X4.5485Y-2.6055
X4.5685Y-3.7655
X4.5685Y-4.7455
X4.5885Y-3.5455
X4.5985Y-4.0855
X4.5985Y-4.1155
X4.6085Y-3.6855
X4.6085Y-4.7255
X4.6085Y-5.8455
X4.6135Y-4.1855
X4.6285Y-4.0855
X4.6285Y-4.1155
X4.6485Y-2.0255
X4.6485Y-3.3255
X4.6485Y-5.2655
X4.6485Y-5.3455
X4.6485Y-5.4855
X4.6585Y-4.0855
X4.6585Y-4.1155
X4.6685Y-3.0455
X4.6685Y-3.6255
X4.6685Y-4.8855
X4.6885Y-4.0555
X4.6885Y-4.0855
X4.6885Y-4.1155
X4.6885Y-4.1855
X4.6912Y-4.0228
X4.7085Y-5.8455
X4.7185Y-4.0555
X4.7185Y-4.0855
X4.7185Y-4.1155
X4.7212Y-4.0228
X4.7285Y-4.2655
X4.7285Y-4.8855
X4.7485Y-2.0255
X4.7485Y-5.0655
X4.7685Y-3.5855
X4.7685Y-4.1855
X4.7885Y-2.5855
X4.7885Y-2.6455
X4.7885Y-2.7255
X4.7885Y-2.8055
X4.7885Y-2.8855
X4.7885Y-2.9655
X4.7885Y-3.0455
X4.7885Y-3.1255
X4.7885Y-3.2055
X4.7885Y-3.2855
X4.7885Y-3.3455
X4.7885Y-3.4055
X4.7885Y-3.4855
X4.7922Y-4.6518
X4.8047Y-5.7394
X4.8085Y-3.9655
X4.8085Y-4.7055
X4.8085Y-5.8455
X4.8185Y-3.5305
X4.8485Y-4.1455
X4.8485Y-4.7455
X4.8485Y-5.4855
X4.8634Y-2.226
X4.8685Y-2.0255
X4.8685Y-2.4105
X4.8885Y-4.0255
X4.8885Y-4.6255
X4.8885Y-4.8855
X4.8885Y-5.8455
X4.9035Y-2.5855
X4.9035Y-2.6705
X4.9035Y-2.7505
X4.9035Y-2.8455
X4.9035Y-2.9305
X4.9035Y-3.0305
X4.9035Y-3.1305
X4.9071Y-4.7748
X4.9485Y-2.4255
X4.9485Y-2.5255
X4.9485Y-4.5455
X4.9909Y-4.6281
X5.0085Y-4.5055
X5.0085Y-5.2655
X5.0085Y-5.8455
X5.0118Y-4.9232
X5.0268Y-2.115
X5.0285Y-2.0255
X5.0496Y-3.609
X5.0516Y-2.2921
X5.0516Y-5.0632
X5.0563Y-3.3827
X5.0618Y-3.7173
X5.0685Y-4.4855
X5.0693Y-5.5402
X5.0826Y-3.6044
X5.0895Y-3.9016
X5.0984Y-3.2748
X5.1085Y-4.4455
X5.1085Y-5.8455
X5.1128Y-3.5817
X5.1149Y-4.0171
X5.1264Y-3.9009
X5.133Y-4.8
X5.1346Y-4.8547
X5.1413Y-4.0397
X5.1485Y-2.3855
X5.1485Y-2.5255
X5.1485Y-3.4855
X5.1485Y-4.3855
X5.1653Y-4.0748
X5.1685Y-4.6255
X5.1819Y-2.1429
X5.1864Y-4.8665
X5.1885Y-2.0255
X5.1885Y-3.1855
X5.1886Y-4.974
X5.1898Y-2.6358
X5.1932Y-3.664
X5.1962Y-4.4782
X5.2085Y-4.3255
X5.2085Y-5.8455
X5.2137Y-3.9457
X5.2285Y-2.5255
X5.2285Y-3.3655
X5.2335Y-2.7531
X5.2469Y-2.3102
X5.2657Y-5.8453
X5.2716Y-3.1732
X5.2886Y-4.2197
X5.3085Y-2.5255
X5.3085Y-5.8455
X5.3146Y-2.637
X5.3285Y-2.0255
X5.3365Y-4.6771
X5.3368Y-3.4206
X5.3485Y-3.9855
X5.3485Y-4.0855
X5.3485Y-4.1855
X5.3512Y-5.0035
X5.3519Y-5.0685
X5.3583Y-5.7016
X5.3685Y-4.0455
X5.3685Y-4.3055
X5.3685Y-5.3455
X5.3702Y-3.7297
X5.3768Y-2.8488
X5.3807Y-2.2067
X5.3881Y-3.7612
X5.3882Y-5.0011
X5.3885Y-2.5255
X5.3976Y-4.7336
X5.3985Y-3.4805
X5.4085Y-3.2055
X5.4085Y-4.8455
X5.4085Y-4.8955
X5.4098Y-3.5921
X5.4098Y-3.6413
X5.4103Y-5.2487
X5.4108Y-5.0236
X5.4221Y-3.7619
X5.4285Y-5.8455
X5.4485Y-4.1255
X5.4543Y-2.8059
X5.4555Y-2.7256
X5.461Y-3.6173
X5.4635Y-4.8705
X5.4657Y-4.5559
X5.4685Y-2.0255
X5.4685Y-2.5255
X5.4685Y-4.0455
X5.474Y-2.1244
X5.4753Y-5.0509
X5.4755Y-3.7849
X5.4885Y-3.8455
X5.4885Y-3.8855
X5.4885Y-3.9855
X5.4885Y-5.1255
X5.4885Y-5.2855
X5.5085Y-2.6255
X5.5135Y-4.0605
X5.5185Y-4.8955
X5.5201Y-3.5913
X5.5201Y-3.6413
X5.5201Y-4.8453
X5.5224Y-2.3075
X5.5285Y-5.4655
X5.5285Y-5.8455
X5.5485Y-2.5255
X5.5485Y-3.1855
X5.5685Y-3.2655
X5.5685Y-4.4855
X5.5885Y-3.4305
X5.5891Y-4.6873
X5.6085Y-2.0255
X5.6115Y-4.7496
X5.6118Y-3.4931
X5.6285Y-2.5255
X5.6285Y-4.3655
X5.6285Y-5.8455
X5.6485Y-4.4655
X5.65Y-2.8996
X5.6535Y-5.7
X5.6681Y-2.15
X5.6685Y-2.6524
X5.6755Y-3.5943
X5.6795Y-2.3713
X5.6835Y-3.6954
X5.6871Y-4.9519
X5.7085Y-3.7655
X5.7085Y-3.8455
X5.7085Y-5.0455
X5.7128Y-4.6709
X5.713Y-3.4143
X5.7285Y-3.9455
X5.7285Y-5.8455
X5.7485Y-2.0255
X5.7485Y-2.5305
X5.762Y-4.139
X5.7657Y-3.1169
X5.7668Y-5.3938
X5.7685Y-2.4055
X5.7685Y-3.2055
X5.7685Y-4.2655
X5.7885Y-4.4655
X5.7953Y-3.5913
X5.8169Y-4.8465
X5.8177Y-4.7803
X5.8244Y-3.5228
X5.8299Y-5.1728
X5.8303Y-5.2197
X5.8303Y-5.2685
X5.8303Y-5.0059
X5.8303Y-3.7005
X5.8303Y-5.05
X5.8305Y-3.7496
X5.8307Y-3.9622
X5.8307Y-4.9591
X5.8311Y-3.909
X5.8311Y-3.802
X5.8311Y-4.0173
X5.8343Y-2.2535
X5.8485Y-4.1055
X5.85Y-5.3681
X5.8685Y-5.5055
X5.8685Y-5.8455
X5.8735Y-4.7155
X5.8735Y-4.7805
X5.8735Y-4.8455
X5.8744Y-3.5925
X5.8756Y-3.5228
X5.8768Y-3.45
X5.8885Y-2.0255
X5.9085Y-3.1855
X5.9085Y-4.9455
X5.9085Y-5.1055
X5.9285Y-3.7055
X5.9285Y-3.8255
X5.9303Y-2.1146
X5.9331Y-5.3177
X5.9485Y-2.4055
X5.9485Y-2.5255
X5.9606Y-3.95
X5.9685Y-5.8455
X5.9728Y-3.1083
X6.0268Y-3.4315
X6.0285Y-2.0255
X6.0285Y-2.5255
X6.0285Y-3.2255
X6.0285Y-3.3055
X6.0285Y-5.2455
X6.0323Y-4.961
X6.0327Y-4.8909
X6.0385Y-3.6205
X6.0385Y-3.6843
X6.0385Y-3.7555
X6.0488Y-4.6917
X6.05Y-5.8457
X6.0685Y-2.5455
X6.0685Y-2.5955
X6.0685Y-2.6455
X6.0685Y-2.6855
X6.0685Y-2.7455
X6.0685Y-2.8255
X6.0685Y-2.9055
X6.0685Y-2.9655
X6.0685Y-3.0455
X6.0685Y-3.1455
X6.0685Y-3.9455
X6.0685Y-3.9855
X6.0685Y-4.0255
X6.0685Y-4.0855
X6.0685Y-4.1455
X6.0685Y-4.2055
X6.0685Y-4.2655
X6.0685Y-4.3255
X6.0685Y-4.4055
X6.0717Y-2.272
X6.074Y-3.4138
X6.0776Y-3.65
X6.0776Y-3.7185
X6.078Y-4.8606
X6.0783Y-4.9244
X6.0783Y-4.9886
X6.0819Y-3.4583
X6.0831Y-4.7232
X6.0835Y-4.6661
X6.088Y-3.5218
X6.0935Y-5.2655
X6.1285Y-5.8455
X6.1449Y-2.1512
X6.1485Y-2.0255
X6.1585Y-2.4355
X6.1642Y-5.6512
X6.1735Y-5.2655
X6.1785Y-2.5655
X6.1835Y-2.8255
X6.1835Y-2.9105
X6.1835Y-2.9905
X6.1835Y-3.0805
X6.1835Y-3.1655
X6.1835Y-3.2905
X6.1835Y-3.3855
X6.1835Y-5.1205
X6.1885Y-3.6755
X6.1885Y-3.7655
X6.1885Y-3.9105
X6.1885Y-3.9955
X6.1885Y-4.0855
X6.1885Y-4.1755
X6.1885Y-4.2705
X6.1885Y-4.3505
X6.1885Y-4.4305
X6.1885Y-4.5305
X6.1885Y-4.5855
X6.1885Y-4.6505
X6.1885Y-4.9205
X6.1885Y-4.9755
X6.1885Y-5.0355
X6.2181Y-2.3882
X6.2235Y-5.1505
X6.2285Y-5.8455
X6.2299Y-2.7453
X6.2386Y-4.1835
X6.2437Y-2.5579
X6.2555Y-4.3307
X6.2681Y-2.1327
X6.2681Y-2.1886
X6.2681Y-2.2476
X6.2681Y-2.315
X6.2681Y-2.3831
X6.2681Y-5.4567
X6.2685Y-2.0255
X6.2685Y-2.074
X6.2685Y-5.3455
X6.2735Y-5.2655
X6.2783Y-3.978
X6.2795Y-5.6161
X6.2795Y-5.6638
X6.2795Y-5.7339
X6.2795Y-5.7984
X6.2799Y-5.8551
X6.2941Y-3.3134
X6.3012Y-5.5827
X6.3047Y-4.785
X6.3106Y-2.8764
X6.3126Y-2.3862
X6.3142Y-4.9831
X6.3157Y-4.5783
X6.3283Y-5.1555
X6.3323Y-5.4571
X6.352Y-2.3854
X6.3583Y-3.7161
X6.3685Y-5.2655
X6.3878Y-2.6189
X6.3917Y-5.4571
X6.3941Y-4.2965
X6.4063Y-4.1264
X6.4126Y-3.0508
X6.4161Y-2.3862
X6.4185Y-5.1555
X6.4485Y-5.2655
X6.463Y-2.3862
X6.4642Y-5.4575
X6.472Y-2.7602
X6.4732Y-3.8976
X6.4768Y-3.4976
X6.4791Y-3.7146
X6.5039Y-5.4776
X6.5075Y-4.4839
X6.5085Y-2.3855
X6.5181Y-4.6945
X6.5185Y-5.1555
X6.5213Y-4.2185
X6.5323Y-4.0878
X6.5335Y-5.2655
X6.5374Y-4.9382
X6.5457Y-5.478
X6.5492Y-2.9008
X6.5602Y-2.3854
X6.5882Y-5.4776
X6.5885Y-3.3255
X6.5885Y-5.2855
X6.5885Y-5.3655
X6.6028Y-2.3854
X6.6085Y-2.4855
X6.6085Y-2.6255
X6.6085Y-2.7455
X6.6085Y-2.8855
X6.6085Y-2.9855
X6.6085Y-3.1055
X6.6085Y-3.2455
X6.6085Y-3.4055
X6.6085Y-3.5655
X6.6085Y-3.7255
X6.6085Y-3.8455
X6.6085Y-3.9655
X6.6085Y-4.0655
X6.6085Y-4.1655
X6.6085Y-4.2855
X6.6085Y-4.4255
X6.6085Y-4.5655
X6.6085Y-4.6855
X6.6085Y-4.8255
X6.6085Y-4.9455
X6.6085Y-5.0655
X6.6085Y-5.1455
T2
X5.4685Y-3.3105
T3
X3.2508Y-3.0813
X3.2708Y-3.5804
X3.3245Y-3.6441
X3.3935Y-3.2105
X3.406Y-3.261
X3.459Y-3.188
X3.5585Y-3.8755
X3.566Y-3.364
X3.626Y-3.28
X4.6513Y-4.9544
X5.6753Y-4.8509
X6.0878Y-4.7784
T4
X4.1397Y-5.7621
X4.2397Y-5.7621
X4.3397Y-5.7621
X4.4397Y-5.7621
X4.5397Y-5.7621
X4.6397Y-5.7621
T5
X4.043Y-2.147
X4.043Y-3.7218
X4.732Y-2.147
X4.732Y-3.7218
X5.0705Y-2.5647
X5.0705Y-2.6647
X5.0705Y-2.7647
X5.0705Y-2.8647
X5.0705Y-2.9647
X5.0705Y-3.0647
X5.8705Y-2.5647
X5.8705Y-2.6647
X5.8705Y-2.7647
X5.8705Y-2.8647
X5.8705Y-2.9647
X5.8705Y-3.0647
T6
X2.3478Y-3.2438
X2.3478Y-3.4438
X2.3478Y-3.6438
X2.3478Y-3.8438
X2.3478Y-4.484
X2.3478Y-4.684
X2.3478Y-4.884
X2.3478Y-5.084
X3.3093Y-2.337
X3.5061Y-2.337
X6.3134Y-4.4774
X6.3134Y-4.6774
X6.3134Y-4.8774
X6.3134Y-5.0774
X6.3136Y-3.221
X6.3136Y-3.421
X6.3136Y-3.621
X6.3136Y-3.821
T7
X2.1654Y-2.1654
X2.1654Y-5.7087
X6.4961Y-2.1654
X6.4961Y-5.7087
T0
M30
